{
    "accessors": [
        {
            "bufferView": 2,
            "byteOffset": 0,
            "componentType": 5123,
            "count": 132,
            "max": [
                99
            ],
            "min": [
                0
            ],
            "name": "accessor_buffer_treeMesh_0",
            "type": "SCALAR"
        },
        {
            "bufferView": 3,
            "byteOffset": 0,
            "componentType": 5123,
            "count": 30,
            "max": [
                97
            ],
            "min": [
                2
            ],
            "name": "accessor_buffer_treeMesh_1",
            "type": "SCALAR"
        },
        {
            "bufferView": 0,
            "byteOffset": 0,
            "componentType": 5126,
            "count": 100,
            "max": [
                3.0000009536743164,
                4.5,
                3.000000476837158
            ],
            "min": [
                -3.0000016689300537,
                -1.0,
                -3.0000016689300537
            ],
            "name": "accessor_buffer_treeMesh_POSITION_0",
            "type": "VEC3"
        },
        {
            "bufferView": 1,
            "byteOffset": 0,
            "componentType": 5126,
            "count": 100,
            "max": [
                1.0,
                0.803557276725769,
                1.0
            ],
            "min": [
                -1.0,
                -1.0,
                -1.0
            ],
            "name": "accessor_buffer_treeMesh_NORMAL_0",
            "type": "VEC3"
        }
    ],
    "asset": {
        "copyright": "",
        "generator": "blendergltf v1.2.0",
        "version": "2.0"
    },
    "bufferViews": [
        {
            "buffer": 0,
            "byteLength": 1200,
            "byteOffset": 0,
            "byteStride": 12,
            "name": "bufferView_buffer_treeMesh_POSITION_0",
            "target": 34962
        },
        {
            "buffer": 0,
            "byteLength": 1200,
            "byteOffset": 1200,
            "byteStride": 12,
            "name": "bufferView_buffer_treeMesh_NORMAL_0",
            "target": 34962
        },
        {
            "buffer": 0,
            "byteLength": 268,
            "byteOffset": 2400,
            "name": "bufferView_buffer_treeMesh_0",
            "target": 34963
        },
        {
            "buffer": 0,
            "byteLength": 64,
            "byteOffset": 2668,
            "name": "bufferView_buffer_treeMesh_1",
            "target": 34963
        }
    ],
    "buffers": [
        {
            "byteLength": 2732,
            "name": "buffer_tree",
            "uri": "buffer_tree.bin"
        }
    ],
    "materials": [
        {
            "alphaMode": "OPAQUE",
            "doubleSided": false,
            "emissiveFactor": [
                0.0,
                0.0,
                0.0
            ],
            "name": "Green",
            "pbrMetallicRoughness": {
                "baseColorFactor": [
                    0.005740547087043524,
                    0.4534684121608734,
                    0.0,
                    1.0
                ],
                "metallicFactor": 0.0,
                "roughnessFactor": 1.0
            }
        },
        {
            "alphaMode": "OPAQUE",
            "doubleSided": false,
            "emissiveFactor": [
                0.0,
                0.0,
                0.0
            ],
            "name": "Trunk",
            "pbrMetallicRoughness": {
                "baseColorFactor": [
                    0.047787752002477646,
                    0.04069458693265915,
                    0.006683837156742811,
                    1.0
                ],
                "metallicFactor": 0.0,
                "roughnessFactor": 1.0
            }
        }
    ],
    "meshes": [
        {
            "name": "treeMesh",
            "primitives": [
                {
                    "attributes": {
                        "NORMAL": 3,
                        "POSITION": 2
                    },
                    "indices": 0,
                    "material": 0,
                    "mode": 4
                },
                {
                    "attributes": {
                        "NORMAL": 3,
                        "POSITION": 2
                    },
                    "indices": 1,
                    "material": 1,
                    "mode": 4
                }
            ]
        }
    ],
    "nodes": [
        {
            "mesh": 0,
            "name": "tree",
            "rotation": [
                0.0,
                0.0,
                0.0,
                1.0
            ],
            "scale": [
                0.5,
                1.0,
                0.5
            ],
            "translation": [
                0.0,
                1.0,
                0.0
            ]
        }
    ],
    "scene": 0,
    "scenes": [
        {
            "extras": {
                "background_color": [
                    0.05087608844041824,
                    0.05087608844041824,
                    0.05087608844041824
                ],
                "frames_per_second": 24
            },
            "name": "Scene",
            "nodes": [
                0
            ]
        }
    ]
}
